<svg width="2482" height="512" viewBox="0 0 2482 512" fill="none" xmlns="http://www.w3.org/2000/svg">
<path d="M48 256C48 166.53 120.53 94 210 94H372V256C372 345.47 299.47 418 210 418H48V256Z" stroke="#425C79" stroke-width="96" stroke-linecap="round" stroke-linejoin="round"/>
<path d="M608.1 407V113H650.1V407H608.1ZM820.088 407L690.728 113H736.088L854.948 384.32H828.908L948.608 113H990.608L861.668 407H820.088ZM1157.95 410.36C1135.55 410.36 1114.69 406.58 1095.37 399.02C1076.33 391.46 1059.81 380.96 1045.81 367.52C1031.81 353.8 1020.89 337.84 1013.05 319.64C1005.21 301.44 1001.29 281.56 1001.29 260C1001.29 238.44 1005.21 218.56 1013.05 200.36C1020.89 182.16 1031.81 166.34 1045.81 152.9C1059.81 139.18 1076.33 128.54 1095.37 120.98C1114.41 113.42 1135.27 109.64 1157.95 109.64C1180.35 109.64 1200.93 113.42 1219.69 120.98C1238.73 128.26 1255.25 138.76 1269.25 152.48C1283.53 165.92 1294.45 181.74 1302.01 199.94C1309.85 218.14 1313.77 238.16 1313.77 260C1313.77 281.84 1309.85 301.86 1302.01 320.06C1294.45 338.26 1283.53 354.22 1269.25 367.94C1255.25 381.38 1238.73 391.88 1219.69 399.44C1200.93 406.72 1180.35 410.36 1157.95 410.36ZM1157.95 372.98C1174.19 372.98 1189.17 370.18 1202.89 364.58C1216.89 358.98 1228.93 351.14 1239.01 341.06C1249.37 330.7 1257.35 318.66 1262.95 304.94C1268.83 291.22 1271.77 276.24 1271.77 260C1271.77 243.76 1268.83 228.78 1262.95 215.06C1257.35 201.34 1249.37 189.44 1239.01 179.36C1228.93 169 1216.89 161.02 1202.89 155.42C1189.17 149.82 1174.19 147.02 1157.95 147.02C1141.43 147.02 1126.17 149.82 1112.17 155.42C1098.45 161.02 1086.41 169 1076.05 179.36C1065.69 189.44 1057.57 201.34 1051.69 215.06C1046.09 228.78 1043.29 243.76 1043.29 260C1043.29 276.24 1046.09 291.22 1051.69 304.94C1057.57 318.66 1065.69 330.7 1076.05 341.06C1086.41 351.14 1098.45 358.98 1112.17 364.58C1126.17 370.18 1141.43 372.98 1157.95 372.98ZM1377.96 407V113H1492.62C1518.38 113 1540.36 117.06 1558.56 125.18C1576.76 133.3 1590.76 145.06 1600.56 160.46C1610.36 175.86 1615.26 194.2 1615.26 215.48C1615.26 236.76 1610.36 255.1 1600.56 270.5C1590.76 285.62 1576.76 297.24 1558.56 305.36C1540.36 313.48 1518.38 317.54 1492.62 317.54H1401.06L1419.96 298.22V407H1377.96ZM1574.52 407L1499.76 300.32H1544.7L1620.3 407H1574.52ZM1419.96 302.42L1401.06 281.84H1491.36C1518.24 281.84 1538.54 276.1 1552.26 264.62C1566.26 252.86 1573.26 236.48 1573.26 215.48C1573.26 194.48 1566.26 178.24 1552.26 166.76C1538.54 155.28 1518.24 149.54 1491.36 149.54H1401.06L1419.96 128.54V302.42ZM1750 407V294.44L1759.66 320.48L1633.24 113H1678.18L1784.44 288.14H1760.08L1866.76 113H1908.34L1782.34 320.48L1791.58 294.44V407H1750ZM2185.54 410.36C2146.9 410.36 2116.52 399.3 2094.4 377.18C2072.28 355.06 2061.22 322.72 2061.22 280.16V113H2103.22V278.48C2103.22 311.24 2110.36 335.18 2124.64 350.3C2139.2 365.42 2159.64 372.98 2185.96 372.98C2212.56 372.98 2233 365.42 2247.28 350.3C2261.84 335.18 2269.12 311.24 2269.12 278.48V113H2309.86V280.16C2309.86 322.72 2298.8 355.06 2276.68 377.18C2254.84 399.3 2224.46 410.36 2185.54 410.36ZM2395.97 407V113H2437.97V407H2395.97Z" fill="#425C79"/>
</svg>
